<?xml version="1.0" encoding="UTF-8" standalone="no"?>
<svg width="448px" height="134px" viewBox="0 0 448 134" version="1.1" xmlns="http://www.w3.org/2000/svg" xmlns:xlink="http://www.w3.org/1999/xlink" xmlns:sketch="http://www.bohemiancoding.com/sketch/ns">
    <title>Dropbox</title>
    <description>Created with Sketch (http://www.bohemiancoding.com/sketch)</description>
    <defs></defs>
    <g id="Page-1" stroke="none" stroke-width="1" fill="none" fill-rule="evenodd" sketch:type="MSPage">
        <g id="Dropbox" sketch:type="MSLayerGroup" transform="translate(0.000000, 8.000000)" fill="#A6A6A6">
            <path d="M38.8296964,0 L0,24.8913627 L26.8492346,46 L66,22.2653278 L38.8296964,0 Z M38.8296964,0" id="Shape" sketch:type="MSShapeGroup"></path>
            <path d="M0,67.1093335 L38.8296964,92 L66,69.7340083 L26.8492346,46 L0,67.1093335 Z M0,67.1093335" id="Shape" sketch:type="MSShapeGroup"></path>
            <path d="M66,69.7340083 L93.1708431,92 L132,67.1093335 L105.151543,46 L66,69.7340083 Z M66,69.7340083" id="Shape" sketch:type="MSShapeGroup"></path>
            <path d="M132,24.8913627 L93.1708431,0 L66,22.2653278 L105.151543,46 L132,24.8913627 Z M132,24.8913627" id="Shape" sketch:type="MSShapeGroup"></path>
            <path d="M65.9986865,76 L38.6864706,98.1941672 L27,90.7223667 L27,99.0983978 L65.9986865,122 L105,99.0983978 L105,90.7223667 L93.3135294,98.1941672 L65.9986865,76 Z M65.9986865,76" id="Shape" sketch:type="MSShapeGroup"></path>
            <path d="M151,93 L168.648675,93 C173.792017,93 181.05351,93 187.005976,88.3102548 C194.268757,82.7044827 198,71.286767 198,58.5406816 C198,25.1030857 177.119987,25 166.833301,25 L151,25 L151,93 L151,93 Z M166,37 L168.573165,37 C174.652679,37 183,37.7049382 183,58.3440337 C183,80.2937731 174.551332,81 168.573165,81 L166,81 L166,37 L166,37 Z M166,37" id="Shape" sketch:type="MSShapeGroup"></path>
            <path d="M204,42.715423 L204,93 L218.173447,93 L218.173447,71.2749008 C218.173447,67.397517 218.173447,55.7705875 228.622118,55.7705875 C229.141577,55.7705875 229.76017,55.7705875 231,55.974248 L231,42.3067964 C230.278308,42.1031358 229.556616,42 228.517697,42 C220.242033,42 217.758408,50.56941 216.517257,54.8528094 L216.517257,42.715423 L204,42.715423 L204,42.715423 Z M204,42.715423" id="Shape" sketch:type="MSShapeGroup"></path>
            <path d="M252.548982,42 C237.519959,42 232,52.6216445 232,68.5013198 C232,84.8957119 237.927491,95 252.448405,95 C267.17178,95 273,84.7940884 273,68.5013198 C273,52.6216445 267.480041,42 252.548982,42 L252.548982,42 Z M252.049793,52 C256.360777,52 258,55.5893318 258,68.9993243 C258,82.9363647 256.153745,86 252.049793,86 C247.844944,86 246,82.8309551 246,68.9993243 C246,56.2244922 247.436121,52 251.948897,52 L252.049793,52 L252.049793,52 Z M252.049793,52" id="Shape" sketch:type="MSShapeGroup"></path>
            <path d="M277,42.7150615 L277,110 L290.977483,110 L290.977483,89.3062767 C292.530243,90.9360428 295.118617,93.6866809 300.709345,93.6866809 C316.963063,93.6866809 318,74.3173872 318,67.1824305 C318,58.7217393 316.344076,50.8704162 311.372335,45.8754246 C308.889771,43.4288181 305.058131,42 301.641795,42 C294.704636,42 291.90861,46.9949917 290.148198,50.2584384 L290.148198,42.7150615 L277,42.7150615 L277,42.7150615 Z M291,63.3629476 C291,58.9772709 291,52 297.251852,52 C302.596779,52 303,58.8777414 303,67.5508414 C303,77.9197703 302.497585,84 296.848631,84 C291.001288,84 291.001288,79.8121062 291.001288,72.7340298 L291.001288,63.3629476 L291,63.3629476 Z M291,63.3629476" id="Shape" sketch:type="MSShapeGroup"></path>
            <path d="M321,25 L321,92.9811695 L329.365947,92.9811695 C330.500402,89.4146106 331.018822,88.3957802 332.051704,86.4585673 C333.289051,89.0062957 335.664811,94 343.824973,94 C346.509411,94 349.296741,93.491237 352.08539,92.0653962 C361.380007,87.2751971 362,72.1910272 362,67.5012762 C362,55.3744541 358.075577,42.0200783 345.578102,42.0200783 C339.487661,42.0200783 336.701651,45.2826839 334.943245,47.4247065 L334.943245,25 L321,25 L321,25 Z M335.001277,60.1665218 C335.001277,57.6203382 335.001277,55.0741546 336.604258,53.1368126 C337.603087,51.8135272 339.202235,51 341.001916,51 C344.901437,51 347,54.3610145 347,67.6016909 C347,80.5385983 345.103246,84 340.800106,84 C335,84 335,77.4826564 335,71.7775363 L335,60.1665218 L335.001277,60.1665218 Z M335.001277,60.1665218" id="Shape" sketch:type="MSShapeGroup"></path>
            <path d="M385.552897,42 C370.520914,42 365,52.6216445 365,68.5013198 C365,84.8957119 370.932337,95 385.449715,95 C400.172151,95 406,84.7940884 406,68.5013198 C406,52.6216445 400.47778,42 385.552897,42 L385.552897,42 Z M385.054361,52 C389.357385,52 391,55.5893318 391,68.9993243 C391,82.9363647 389.15566,86 385.054361,86 C380.84827,86 379,82.8309551 379,68.9993243 C379,56.2244922 380.438271,52 384.950879,52 L385.054361,52 L385.054361,52 Z M385.054361,52" id="Shape" sketch:type="MSShapeGroup"></path>
            <path d="M406.929812,43 L419.842409,67.9319799 L405,94 L417.09444,94 L425.533146,78.6912612 L432.852406,94 L448,94 L433.054997,65.4493743 L445.963698,43.0013241 L433.870557,43.0013241 L427.464257,54.7933693 L422.077406,43.0013241 L406.929812,43.0013241 L406.929812,43 Z M406.929812,43" id="Shape" sketch:type="MSShapeGroup"></path>
        </g>
    </g>
</svg>