<?xml version="1.0" encoding="UTF-8" standalone="no"?>
<svg width="270px" height="134px" viewBox="0 0 270 134" version="1.1" xmlns="http://www.w3.org/2000/svg" xmlns:xlink="http://www.w3.org/1999/xlink" xmlns:sketch="http://www.bohemiancoding.com/sketch/ns">
    <title>GitHub</title>
    <description>Created with Sketch (http://www.bohemiancoding.com/sketch)</description>
    <defs></defs>
    <g id="Page-1" stroke="none" stroke-width="1" fill="none" fill-rule="evenodd" sketch:type="MSPage">
        <g id="GitHub" sketch:type="MSLayerGroup" transform="translate(0.000000, 30.000000)" fill="#A6A6A6">
            <path d="M51.9414825,31.2445216 L29.2796614,31.2445216 C28.6950902,31.2445216 28.2205823,31.719482 28.2205823,32.3051727 L28.2205823,43.3950752 C28.2205823,43.9802039 28.6950902,44.4568505 29.2796614,44.4568505 L38.1201076,44.4568505 L38.1201076,58.2357593 C38.1201076,58.2357593 36.1350363,58.9130696 30.6470302,58.9130696 C24.1723846,58.9130696 15.1275349,56.5450129 15.1275349,36.6371483 C15.1275349,16.7253492 24.5452523,14.1049171 33.3879447,14.1049171 C41.0418406,14.1049171 44.339249,15.4533548 46.4371914,16.1036851 C47.0964485,16.305473 47.7062893,15.6483977 47.7062893,15.063269 L50.2343773,4.34771394 C50.2343773,4.07341731 50.1417219,3.74347444 49.8295014,3.51976531 C48.9770719,2.91159123 43.7788244,0 30.6470302,0 C15.5183721,0 0,6.44259821 0,37.4133853 C0,68.3852965 17.7673709,73 32.7393571,73 C45.1360853,73 52.6568943,67.6973066 52.6568943,67.6973066 C52.9668687,67.5258712 53,67.092505 53,66.8935276 L53,32.3046106 C53,31.720044 52.5260537,31.2445216 51.9414825,31.2445216 L51.9414825,31.2445216 Z M51.9414825,31.2445216" id="Shape" sketch:type="MSShapeGroup"></path>
            <path d="M169,4.06675523 C169,3.4763003 168.529225,3 167.940191,3 L155.082725,3 C154.495388,3 154.017824,3.4763003 154.017824,4.06675523 C154.017824,4.06956692 154.021219,28.7607048 154.021219,28.7607048 L133.979913,28.7607048 L133.979913,4.06675523 C133.979913,3.4763003 133.506875,3 132.918972,3 L120.062072,3 C119.476999,3 119,3.4763003 119,4.06675523 L119,70.9304331 C119,71.5203257 119.476999,72 120.062072,72 L132.918972,72 C133.506875,72 133.979913,71.5197633 133.979913,70.9304331 L133.979913,42.3304836 L154.021219,42.3304836 C154.021219,42.3304836 153.986137,70.9281837 153.986137,70.9304331 C153.986137,71.5203257 154.463136,72 155.051038,72 L167.938494,72 C168.527528,72 168.998302,71.5197633 168.999434,70.9304331 L168.999434,4.06675523 L169,4.06675523 Z M169,4.06675523" id="Shape" sketch:type="MSShapeGroup"></path>
            <path d="M78,12.4968409 C78,7.79724296 74.1941164,4 69.4988397,4 C64.8082042,4 61,7.79781735 61,12.4968409 C61,17.1918438 64.8082042,21 69.4988397,21 C74.1941164,20.9994256 78,17.1912694 78,12.4968409 L78,12.4968409 Z M78,12.4968409" id="Shape" sketch:type="MSShapeGroup"></path>
            <path d="M76,55.8657385 L76,25.0629396 C76,24.4781544 75.5239623,24 74.9358491,24 L62.1145283,24 C61.5264151,24 61,24.6016216 61,25.1864067 L61,69.31748 C61,70.6138847 61.8150943,71 62.8701887,71 L74.4218868,71 C75.6892453,71 76,70.3826645 76,69.2967151 L76,55.8657385 L76,55.8657385 Z M76,55.8657385" id="Shape" sketch:type="MSShapeGroup"></path>
            <path d="M217.921971,24 L205.053541,24 C204.46345,24 203.982931,24.4858704 203.982931,25.0828131 L203.982931,58.2917408 C203.982931,58.2917408 200.713463,60.6789422 196.073774,60.6789422 C191.434086,60.6789422 190.202542,58.5776809 190.202542,54.0430805 L190.202542,25.0828131 C190.202542,24.4853008 189.723165,24 189.132503,24 L176.072322,24 C175.482802,24 175,24.4858704 175,25.0828131 L175,56.2354781 C175,69.7048532 182.521089,73 192.867652,73 C201.355486,73 208.19917,68.3195815 208.19917,68.3195815 C208.19917,68.3195815 208.525032,70.7859576 208.67227,71.0787329 C208.820078,71.3703691 209.20415,71.6648532 209.61904,71.6648532 L217.927678,71.6283987 C218.517198,71.6283987 219,71.1419587 219,70.5467248 L218.996005,25.0828131 C218.996005,24.4853008 218.514916,24 217.921971,24 L217.921971,24 Z M217.921971,24" id="Shape" sketch:type="MSShapeGroup"></path>
            <path d="M251.086459,23.403231 C243.868175,23.403231 238.95848,26.6020473 238.95848,26.6020473 L238.95848,4.06198017 C238.95848,3.47416827 238.485603,3 237.901692,3 L225.058479,3 C224.474568,3 224,3.47416827 224,4.06198017 L224,70.6263596 C224,71.2136116 224.474568,71.6911388 225.06017,71.6911388 L233.971005,71.6911388 C234.372302,71.6911388 234.676094,71.4856846 234.900415,71.1257198 C235.121917,70.7679942 235.44149,68.0567818 235.44149,68.0567818 C235.44149,68.0567818 240.692739,73 250.635,73 C262.306447,73 269,67.1196417 269,46.6022073 C269,26.0842131 258.309816,23.403231 251.086459,23.403231 L251.086459,23.403231 Z M246.609827,60.9900092 C242.075585,60.8588058 239,58.9023319 239,58.9023319 L239,38.1446344 C239,38.1446344 242.033843,36.3766965 245.756432,36.0602648 C250.464019,35.6594881 255,37.0117649 255,47.6899558 C255.00058,58.9497416 252.953475,61.1719299 246.609827,60.9900092 L246.609827,60.9900092 Z M246.609827,60.9900092" id="Shape" sketch:type="MSShapeGroup"></path>
            <path d="M111.773166,25.222288 L102.255009,25.222288 C102.255009,25.222288 102.241048,12.7129011 102.241048,12.7101229 C102.241048,12.2367076 101.995905,12 101.445309,12 L88.4744822,12 C87.9702349,12 87.6994044,12.2211494 87.6994044,12.7028994 L87.6994044,25.6329146 C87.6994044,25.6329146 81.1989136,27.1942959 80.7594423,27.3204289 C80.3222045,27.4471174 80,27.848298 80,28.3272697 L80,36.4525647 C80,37.0371102 80.4690673,37.5083029 81.0492588,37.5083029 L87.6994044,37.5083029 L87.6994044,57.0555743 C87.6994044,71.5741977 97.9340057,73 104.839905,73 C107.995499,73 111.770374,71.9920478 112.393563,71.7625636 C112.770492,71.624762 112.98939,71.2363615 112.98939,70.8151775 L113,61.8769641 C113,61.2940855 112.505246,60.8223372 111.947949,60.8223372 C111.393445,60.8223372 109.974516,61.0468205 108.513707,61.0468205 C103.838669,61.0468205 102.25445,58.8836684 102.25445,56.0837394 C102.25445,53.2860331 102.253892,37.5077472 102.253892,37.5077472 L111.772607,37.5077472 C112.352799,37.5077472 112.822983,37.0365546 112.822983,36.452009 L112.822983,26.275248 C112.822983,25.6918137 112.353357,25.222288 111.773166,25.222288 L111.773166,25.222288 Z M111.773166,25.222288" id="Shape" sketch:type="MSShapeGroup"></path>
        </g>
    </g>
</svg>