<?xml version="1.0" encoding="UTF-8" standalone="no"?>
<svg width="461px" height="134px" viewBox="0 0 461 134" version="1.1" xmlns="http://www.w3.org/2000/svg" xmlns:xlink="http://www.w3.org/1999/xlink" xmlns:sketch="http://www.bohemiancoding.com/sketch/ns">
    <title>MailChimp</title>
    <description>Created with Sketch (http://www.bohemiancoding.com/sketch)</description>
    <defs></defs>
    <g id="Page-1" stroke="none" stroke-width="1" fill="none" fill-rule="evenodd" sketch:type="MSPage">
        <g id="Group" sketch:type="MSLayerGroup" transform="translate(0.000000, 18.000000)" fill="#A6A6A6">
            <path d="M128.555133,54.3709846 L128.555133,54.3692308 L128.555133,54.3709846 L128.555133,54.3709846 Z M128.555133,54.3709846" id="Shape" sketch:type="MSShapeGroup"></path>
            <path d="M437.792851,83.0530013 L437.948303,83.0552638 C447.256287,83.0552638 453.806684,76.5790324 453.877652,67.3109514 C453.912572,62.721594 452.592354,58.5213762 450.160315,55.4863144 C447.588595,52.2736511 443.988411,50.5598536 439.747269,50.5270483 L439.662784,50.5270483 C433.939213,50.5270483 428.624548,54.8878993 423.414646,63.860732 L423.000106,64.5767939 L422.733134,63.7951213 C421.417422,59.9489751 420.245898,56.7453616 419.545237,54.8290759 C419.055224,53.4919745 418.837816,52.8912969 418.787125,52.6967272 C418.53705,51.7261409 417.710224,51.1232009 416.627691,51.1232009 C415.96195,51.1232009 415.25453,51.350576 414.584283,51.778177 C413.920795,52.2012531 413.550187,52.7204828 413.417264,53.4127891 L413.383471,53.5168613 C408.169062,69.8471454 403.869343,77.778125 400.22748,77.778125 C399.698041,77.7736001 399.283502,77.5993923 398.974851,77.2543704 C398.020734,76.195549 398.255039,73.6774545 398.579461,70.1910361 C398.817145,67.6299552 399.088624,64.7295086 398.975977,61.6537228 C398.760822,55.7385763 395.538004,52.1865472 390.356263,52.1469545 C383.772072,52.1446921 379.503895,59.1865332 377.538212,63.3844886 L376.951324,64.6367486 L376.82178,63.257792 C376.330641,58.0632323 374.594758,51.8584936 369.113377,51.8166384 C362.719559,51.8166384 357.848722,59.3516913 354.877106,65.6740768 L354.080695,67.3686435 L354.159548,65.4976066 C354.513258,57.0643655 354.80276,52.0847375 355.021294,50.7035185 C355.237575,49.3177747 355.123802,48.3879123 354.67209,47.8551079 C354.245159,47.3562401 353.43861,47.1707201 352.255821,47.2465118 C350.209033,47.3766021 349.162547,48.6277308 347.586622,52.8211613 C344.999131,59.7080254 338.41494,75.7306178 333.157725,75.7306178 C332.114618,75.7238305 331.288919,75.3663651 330.684007,74.6695339 C328.479514,72.1310775 329.361537,65.2702315 330.581499,55.7747753 L330.673869,55.056451 C331.250619,50.5609849 330.266089,49.6017108 327.835176,49.1526166 C327.573836,49.1051054 327.324887,49.0802186 327.096215,49.0802186 C325.154188,49.0802186 324.246257,50.9478619 322.432648,56.1378968 C319.205324,65.3731724 315.055425,75.0858227 310.201485,75.0858227 C310.023504,75.0858227 309.847775,75.072248 309.669794,75.0439676 C307.098073,74.6039232 307.154396,70.7736141 307.225364,65.9195514 C307.262537,63.2951223 307.306469,60.3188839 306.903195,57.6322377 C306.178877,52.8109804 303.350322,49.8008054 299.52034,49.7702625 C291.877272,49.7702625 286.723692,59.5982971 284.326573,65.4580139 L283.783617,66.7838031 L283.603383,65.360729 C283.28234,62.8200101 282.858789,58.7940001 282.675175,54.0326974 L282.669543,53.8912949 L282.756281,53.7804354 C297.059013,35.7001548 303.476487,22.6526696 303.562098,11.473959 C303.617295,4.33257052 300.335901,0.0429863394 294.785805,0 C290.728277,0 281.077847,3.39365837 277.725486,34.8381656 C277.10255,40.6684707 276.761231,46.6469655 276.71054,52.6084921 L276.709414,52.7261389 L276.642952,52.8211613 C270.099314,62.3324545 256.133395,78.6932815 242.460357,78.6932815 C230.10641,78.6932815 220.249838,68.6559713 220.249838,50.9388122 C220.249838,27.1877284 236.991367,12.6051784 249.588631,12.6051784 L249.693392,12.6063096 C252.430703,12.6278028 254.778257,13.3947696 256.481473,14.8268934 C258.25115,16.3133158 259.177105,18.397022 259.157955,20.8517683 C259.132046,24.1311735 258.06979,25.8166904 257.041327,27.4445152 C256.777734,27.8641977 256.514141,28.2804864 256.273077,28.721662 C256.029761,29.1662313 255.807847,29.8132888 256.131142,30.3664551 C256.462323,30.9331961 257.308299,31.2895302 258.339015,31.2974487 C261.337666,31.2974487 265.873942,26.9388601 265.923507,20.3698688 C265.975324,13.4954481 260.208947,6.41175188 249.920938,6.41175188 C234.352059,6.41175188 213.38403,23.5881881 213.38403,51.4252365 C213.38403,71.1163736 225.678275,84.7260749 242.33194,84.7260749 C254.14969,84.7260749 265.840148,76.2283543 276.193493,62.0349438 L276.827693,61.175217 L276.872751,62.2442194 C277.092412,67.4387792 277.467525,71.5326624 277.742383,74.5224754 C277.919238,76.4444172 278.047655,77.8324235 278.042022,78.5993903 C278.028505,80.27812 278.30111,81.443276 278.87786,82.1582067 C279.453484,82.8742686 280.3693,83.2125033 281.755979,83.2226842 C284.081004,83.2226842 284.547361,81.6299272 285.467683,77.7034645 L285.732402,76.5812948 C286.876891,71.8222545 291.10339,56.2894802 297.460034,56.2894802 C298.498636,56.2985299 299.299553,56.6073528 299.868418,57.2125553 C301.271994,58.7080274 301.118794,61.7770258 300.940813,65.3324485 C300.829293,67.5507699 300.71552,69.8414893 300.936307,72.0733853 C301.535587,78.0982601 304.125331,81.0439556 308.856486,81.0790234 C313.713805,81.0812858 318.781773,75.8267714 321.457129,70.9444282 L321.961785,70.0236156 L322.158917,71.0575502 C322.653435,73.6695359 324.861307,82.2464418 331.773299,82.2464418 C338.039827,82.2464418 343.414194,75.6208895 349.306735,61.9840389 L350.077237,60.2034995 L350.029925,62.1458033 C349.904888,67.3132138 349.626651,73.6231559 349.624398,78.5021054 C349.622145,82.2758535 350.001764,83.7158959 351.738774,83.7158959 C351.861558,83.7158959 351.994481,83.7339954 352.133037,83.7339954 C353.799079,83.7339954 354.93005,82.7351286 355.494409,80.7600195 C359.927051,65.2430822 363.759287,58.0168523 367.555475,58.0168523 C371.272811,58.0451328 371.620889,64.870911 371.919403,76.9319728 L371.939679,77.778125 C372.029796,81.9964423 372.180743,83.8629544 374.790763,83.8821852 C376.771089,83.8821852 377.263355,82.3199711 378.286186,78.473825 C378.482191,77.7407947 378.695093,76.9364977 378.945168,76.0677212 C382.525075,63.5960267 385.492185,58.5078015 389.186992,58.5078015 C392.350107,58.5315571 392.525836,61.8064375 392.584412,62.8822272 C392.70607,65.1865212 392.469512,67.5994123 392.241966,69.9285932 C392.029064,72.0937472 391.81053,74.3324305 391.892762,76.4150055 C392.086514,81.2928238 394.746099,83.999832 399.382631,84.0348998 C405.40021,84.0348998 410.832026,76.9670406 415.58909,63.0326794 L415.919144,62.0609619 L416.29651,63.0157111 C417.159383,65.2057519 418.283595,68.1706781 419.324449,71.7080014 L419.363876,71.8426165 L419.306426,71.9704443 C414.700309,82.241917 411.450456,93.6842018 411.404271,99.7961805 C411.342315,107.847069 414.969534,113.078959 420.645793,113.123077 L420.743796,113.123077 C423.831438,113.123077 431.028426,111.878736 431.168108,100.357265 C431.224431,95.6355553 430.113736,88.9590981 427.86869,80.51002 L427.61073,79.5428273 L428.439808,80.0971249 C431.310042,82.0032297 434.541872,83.025852 437.792851,83.0530013 L437.792851,83.0530013 Z M282.529684,43.3950179 C282.654872,40.522809 282.890971,37.7248814 283.225903,35.0811436 C285.396919,18.0392206 289.927832,6.13846154 294.250099,6.13846154 L294.268767,6.13846154 C296.328872,6.15421817 297.360022,7.75126537 297.338059,10.8823332 C297.279858,18.577197 292.522729,29.5933338 283.200646,43.6246146 L282.471483,44.7230769 L282.529684,43.3950179 L282.529684,43.3950179 Z M424.550643,105.577027 C423.834521,106.511684 422.836983,106.984615 421.587773,106.984615 C420.15324,106.973408 419.075625,106.483666 418.342343,105.524354 C416.287781,102.834695 416.866628,96.5151147 420.218446,85.0414745 C420.618834,83.6708687 421.053541,82.292418 421.512271,80.9442261 L421.901219,79.8 L422.243265,80.9576744 C426.148763,94.2020074 426.924371,102.485039 424.550643,105.577027 L424.550643,105.577027 Z M425.22543,71.026595 L425.156624,70.8993973 L425.019011,70.4570194 L425.082269,70.3253192 C429.401527,61.2976594 434.35114,56.1230769 438.658191,56.1230769 L438.702582,56.1230769 C443.565632,56.1602232 446.928261,60.5997606 446.881651,66.9134941 C446.849467,71.1279029 445.017223,73.5547899 443.487948,74.8481542 C441.742266,76.3249983 439.41728,77.1692308 437.10894,77.1692308 C431.417995,77.1253307 427.511574,73.8058084 425.22543,71.026595 L425.22543,71.026595 Z M425.22543,71.026595" id="Shape" sketch:type="MSShapeGroup"></path>
            <path d="M439.011407,57.0035077 L439.011407,57 L439.011407,57.0035077 L439.011407,57.0035077 Z M439.011407,57.0035077" id="Shape" sketch:type="MSShapeGroup"></path>
            <path d="M145.787641,80.9059055 C152.544302,80.3622735 157.904196,71.1475985 159.894757,67.2102142 L160.407579,66.1951337 L160.602137,67.3162337 C161.556931,72.8540616 164.560766,82.1589659 173.958012,82.2322773 L174.036735,82.2322773 C178.101077,82.2322773 182.711981,79.7385629 187.372367,75.0240781 L187.714248,74.6778228 L187.962787,75.0940058 C191.099326,80.3566341 195.308744,83.1526169 199.788068,82.922532 C206.385033,82.5785325 210.387522,77.8911165 210.74065,74.6349639 C210.830619,73.8048536 210.61132,73.0243695 210.138983,72.4965277 C209.545189,71.8333418 208.684862,71.7566468 208.051706,72.3645672 L207.750311,72.6510455 C206.214093,74.1296794 203.353083,76.8850589 200.236787,77.0474718 C196.419859,77.2346978 193.597086,74.9462552 191.772968,70.2227474 L191.696495,70.0242428 L191.8247,69.8573185 C202.320691,56.0894437 209.685765,35.0817894 208.959267,20.9913446 C208.624133,14.4700165 206.732538,6.69562793 199.631747,6.69562793 C199.458557,6.69562793 199.280868,6.7001394 199.102055,6.70916234 C196.381622,6.85014574 193.907479,8.15057661 191.749351,10.5721075 C185.160258,17.9652769 181.712202,36.1622861 182.963893,56.9319605 C183.223678,61.2471803 183.97042,65.2804334 185.183875,68.9155494 L185.252476,69.1185655 L185.114149,69.2821062 C181.219622,73.8465847 177.376828,76.3617286 174.293146,76.3617286 C166.87409,76.3617286 167.123753,63.8863896 167.709675,53.5404638 C167.836756,51.3095425 168.024566,49.8884299 167.366669,49.0808769 C166.896582,48.5022811 166.109355,48.2169307 164.963376,48.2079077 L164.828423,48.2067799 C162.188962,48.2067799 161.636778,48.7515397 160.284996,52.681029 C157.474595,60.8445317 151.928015,74.5447345 146.347697,74.5447345 C144.801358,74.5312001 143.620517,74.0011025 142.811922,72.9679762 C140.104984,69.5031682 142.160772,60.8614498 143.811701,53.9149157 C144.108598,52.6663667 144.393124,51.4674439 144.637165,50.3576226 C144.999289,48.7109365 144.887953,47.509758 144.307654,46.7822836 C143.72623,46.057065 142.564507,45.7638195 141.030539,45.8856292 C138.640741,46.0773666 137.112395,47.0811684 136.374651,51.6388797 L136.226202,52.5862882 L135.670645,51.9118236 C134.627006,50.3666455 132.591461,48.5259663 128.815018,48.5259663 C128.484383,48.5259663 128.141377,48.5395007 127.787124,48.5676974 C123.75652,48.8992903 119.166984,51.7167026 115.807772,55.9191357 C111.885131,60.8276137 110.01153,67.0387784 110.533349,73.4101001 C110.561464,73.7473324 110.609822,74.0710303 110.658181,74.3924724 L110.685171,74.5706755 L110.563713,74.7048916 C108.217776,77.2685338 105.826854,78.5689646 103.457299,78.5689646 C99.8023147,78.540768 97.7037913,75.8158408 97.7037913,71.2773033 C97.7037913,63.636003 102.866878,40.6026993 102.866878,32.2643771 C102.866878,23.3903181 98.9239938,18.5596629 92.0773646,18.5066531 L91.9739004,18.5066531 C81.9772369,18.5066531 74.1848102,29.8834495 66.7286421,53.2912052 C66.0460034,55.4341528 65.3026358,57.9109492 64.6661062,60.0516411 L63.6190938,63.5717146 L63.9294863,59.9129134 C64.6222464,51.7584337 65.0979567,43.8261437 65.3431218,36.3325941 C65.7142433,25.0200862 64.1892714,17.7397035 60.681611,14.0763908 C58.7888913,12.1003675 56.2855082,11.1270181 53.0241375,11.102205 L52.9375425,11.102205 C40.7040286,11.102205 34.8436828,31.7940565 30.5769103,46.3942973 C29.2892312,50.8020023 26.7498605,60.7441516 25.0550723,67.5395514 L26.0593496,65.9030161 C26.8117141,57.3447599 28.992334,35.9073882 28.8495084,24.2779496 C28.6954368,11.8014827 24.553496,6.2083893 15.416035,6.13846154 L15.303574,6.13846154 C10.4238887,6.13846154 7.03768619,8.57127107 5.05612234,10.6115828 C1.87572362,13.8869091 -0.105840227,18.6735775 0.00437161015,22.8072107 C0.0718482451,25.3200988 1.60919091,27.5577874 2.77428747,27.5577874 C3.53339962,27.5577874 3.95400397,26.541579 4.13619089,25.9359143 C6.96233728,16.5644658 10.6206955,12.0078824 15.3159447,12.0078824 C17.2637702,12.0225447 18.7122686,12.5977569 19.7975179,13.7673552 C23.464873,17.7137625 22.7979789,28.3698517 21.5878979,47.7161576 C21.197658,53.9510075 20.7556861,61.0159676 20.38344,69.0520213 C20.3193372,70.4314029 20.2338668,71.7611583 20.1517702,73.0277531 C19.7952686,78.6073121 19.5118668,83.0172728 21.6227608,83.3454822 C24.3679353,83.7751996 26.1560661,82.6563553 27.0703745,79.9314282 C28.4266549,75.8868965 31.4687265,64.8326701 37.3549383,44.6336966 C43.0027326,25.2501711 47.2695052,18.1976175 52.7283649,18.1976175 C59.0351811,18.1976175 59.5052683,29.0578507 58.3491686,51.976112 C58.1028789,56.833836 57.773368,62.3367 57.5203306,68.3256748 C57.4843431,69.1670637 57.4449817,69.9825117 57.4056203,70.7686352 C57.1627044,75.7267393 56.9715206,79.6393106 58.3840315,81.139374 C58.8248789,81.606311 59.4231717,81.8375238 60.2160222,81.8420352 C62.9499505,81.8420352 63.7720408,79.4385502 65.1339442,75.4537955 C65.3746109,74.7511342 65.6298975,73.9999747 65.914424,73.2138512 C75.2824301,47.2965911 82.2100313,24.8103029 91.5060624,24.8103029 C94.2950966,24.8103029 96.4644705,27.0818274 96.4644705,31.5120897 C96.4644705,41.7384615 91.4790717,61.4986947 91.4790717,71.517539 C91.4790717,75.1064124 92.509215,78.3287289 94.4547913,80.5934863 C96.4532243,82.9180205 99.246757,84.1575466 102.536243,84.1846154 L102.608218,84.1846154 C105.718891,84.1846154 108.960019,82.6687619 112.243882,79.6799138 L112.552025,79.4002028 L112.799439,79.7351793 C114.962065,82.6495881 118.450607,84.2161957 122.218053,83.9252059 C127.996302,83.4740591 132.844498,78.3140667 134.648374,73.4484476 L135.001501,72.4965277 L135.353504,73.4484476 C136.692916,77.0576226 139.592162,81.4078064 145.787641,80.9059055 L145.787641,80.9059055 Z M198.725273,13.1560856 L198.821306,13.1538462 C199.460802,13.1538462 200.023908,13.4830447 200.492072,14.1347235 C202.718304,17.2229196 202.752134,28.4951712 198.922796,41.3204786 C196.734759,48.6501855 193.791549,55.5745526 190.415097,61.3433656 L189.876,62.2615385 L189.738497,61.1989213 C189.341268,58.0972886 189.145927,54.8680074 189.007333,52.1190874 C188.030628,32.7344425 193.745715,13.42146 198.725273,13.1560856 L198.725273,13.1560856 Z M134.645329,59.2789715 C132.62406,67.5142251 128.747899,77.4532065 121.758893,78.0222539 C121.563287,78.035911 121.373301,78.0461538 121.19006,78.0461538 C118.290809,78.0461538 116.665249,76.1239118 116.358349,72.3329182 C115.973881,67.5893393 117.99515,62.0342989 121.503705,58.1772958 C123.738568,55.7212873 126.258972,54.3692308 128.599508,54.3692308 L128.646723,54.3692308 C131.602183,54.3919927 133.674041,56.7945107 134.626218,59.0354192 L134.676806,59.1515049 L134.645329,59.2789715 L134.645329,59.2789715 Z M134.645329,59.2789715" id="Shape" sketch:type="MSShapeGroup"></path>
            <path d="M167.508705,28.9384615 C164.838574,28.9384615 162.681528,31.0009315 162.661749,33.5368114 C162.640807,36.0909432 164.783892,38.185354 167.435407,38.2047467 L167.473801,38.5846154 L167.473801,38.2047467 C170.105537,38.2047467 172.26142,36.1434175 172.281199,33.6086784 C172.303305,31.0534059 170.161383,28.958995 167.508705,28.9384615 L167.508705,28.9384615 Z M167.508705,28.9384615" id="Shape" sketch:type="MSShapeGroup"></path>
            <path d="M330.169154,28.9384615 C327.499656,28.9384615 325.344283,31.0009315 325.323346,33.5368114 C325.302409,36.0909432 327.443823,38.185354 330.097037,38.2047467 L330.134259,38.5846154 L330.134259,38.2047467 C332.767699,38.2047467 334.923071,36.1434175 334.942845,33.6086784 C334.961456,31.0534059 332.821205,28.958995 330.169154,28.9384615 L330.169154,28.9384615 Z M330.169154,28.9384615" id="Shape" sketch:type="MSShapeGroup"></path>
            <path d="M456.064095,78.0461538 C454.377568,78.0461538 453.003802,79.4250205 453.003802,81.1175629 C453.003802,82.8090162 454.378654,84.1846154 456.064095,84.1846154 C457.751709,84.1846154 459.125475,82.8079271 459.125475,81.1175629 C459.126561,79.4250205 457.751709,78.0461538 456.064095,78.0461538 L456.064095,78.0461538 Z M456.501357,84.1846154 C455.048836,84.1846154 453.878327,83.0117444 453.878327,81.5549382 C453.878327,80.098132 455.048836,78.9230769 456.501357,78.9230769 C457.952788,78.9230769 459.125475,80.098132 459.125475,81.5549382 C459.125475,83.0117444 457.952788,84.1846154 456.501357,84.1846154 L456.501357,84.1846154 Z M456.501357,84.1846154" id="Shape" sketch:type="MSShapeGroup"></path>
            <path d="M457.211979,79.895036 C457.211979,79.2665025 456.90256,78.9230769 456.10521,78.9230769 L454.752852,78.9230769 L454.752852,82.4307692 L455.196425,82.4307692 L455.196425,80.8950739 L455.827165,80.8950739 L456.876594,82.4307692 L457.376426,82.4307692 L456.326996,80.8950739 C456.804108,80.8129973 457.211979,80.5430087 457.211979,79.895036 L457.211979,79.895036 Z M456.256073,79.8 L455.627376,79.8 L455.627376,78.9230769 L456.5013,78.9230769 C456.920832,78.9230769 457.376426,79.0197142 457.376426,79.3519546 C457.375224,79.7832282 456.793409,79.8 456.256073,79.8 L456.256073,79.8 Z M456.256073,79.8" id="Shape" sketch:type="MSShapeGroup"></path>
        </g>
    </g>
</svg>