<?xml version="1.0" encoding="UTF-8" standalone="no"?>
<svg width="304px" height="134px" viewBox="0 0 304 134" version="1.1" xmlns="http://www.w3.org/2000/svg" xmlns:xlink="http://www.w3.org/1999/xlink" xmlns:sketch="http://www.bohemiancoding.com/sketch/ns">
    <title>mediatemple</title>
    <description>Created with Sketch (http://www.bohemiancoding.com/sketch)</description>
    <defs></defs>
    <g id="Page-1" stroke="none" stroke-width="1" fill="none" fill-rule="evenodd" sketch:type="MSPage">
        <path d="M61.2546215,45.4105663 L61.2546215,52.6044384 L61.6909178,52.6044384 C74.6137326,44.8196361 87.9615845,44.2019733 95.9401771,44.2019733 C117.47351,44.2019733 124.797659,50.3490547 127.598399,52.6044384 C132.549659,49.7384268 143.31351,44.2019733 161.614029,44.2019733 C198.240399,44.2019733 198.240399,58.6474036 198.240399,64.486357 L198.240399,98.5183105 L168.732696,98.5183105 L168.732696,68.2021826 C168.732696,61.9256594 168.732696,54.9625315 153.002103,54.9625315 C145.255733,54.9625315 137.28277,57.3206245 134.491881,60.8014849 C131.902251,63.7758338 130.82277,66.4378338 130.82277,72.9971594 L130.82277,98.5183105 L101.316473,98.5183105 L101.316473,69.4065547 C101.316473,60.3878338 101.526177,54.9625315 86.0292141,54.9625315 C78.2715845,54.9625315 70.3098808,57.0124966 67.2909919,60.0853338 C64.9237326,62.4406129 63.4037326,64.9028222 63.4037326,72.7087291 L63.4037326,98.5183105 L33.9115104,98.5183105 L33.9115104,45.4105663 L61.2546215,45.4105663 Z M269.386251,57.168671 L247.97677,57.168671 L247.97677,78.4463803 C247.97677,85.9624501 247.97677,88.4218454 256.725214,88.4218454 C260.879881,88.4218454 264.554622,87.9392524 268.470029,87.1963687 L269.386251,87.0950663 L272.141955,97.8950198 C261.794696,99.8155431 250.507288,100.018148 247.291362,100.018148 C237.632325,100.018148 225.188029,98.5816245 220.591436,94.6322408 C216.676029,91.3652408 216.210177,88.2136129 216.210177,80.1699268 L216.210177,57.168671 L201.713881,57.168671 L201.713881,46.0704384 L216.210177,46.0704384 L216.210177,35.5800198 L247.97677,27.339357 L247.97677,46.0704384 L269.386251,46.0704384 L269.386251,57.168671 Z M19.4799549,128.54038 C7.74217708,110.843427 -0.03515625,89.8175663 -0.03515625,68.6538222 C-0.03515625,43.6715431 9.78995486,23.2999268 19.7262512,8.99941518 L31.5836586,8.99941518 C22.7845475,28.5057408 16.7960289,45.0644501 16.7960289,69.1673687 C16.7960289,96.8060198 26.6014363,118.106241 31.0699549,127.76795 C31.1980289,127.905834 31.4583993,128.416566 31.4583993,128.54038 L19.4799549,128.54038 Z M284.468029,9.26392681 C296.188918,26.9735431 303.964844,48.0134733 303.964844,69.1673687 C303.964844,94.1440198 294.153807,114.508601 284.211881,128.809113 L272.347436,128.809113 C281.146547,109.287311 287.144918,92.7257873 287.144918,68.6538222 C287.144918,40.9884384 277.328251,19.716357 272.854103,10.0222873 C272.733066,9.90410123 272.476918,9.38774076 272.476918,9.26392681 L284.468029,9.26392681 Z M37.1443252,112.296834 L40.6037326,112.296834 L40.6037326,113.844508 L40.6909919,113.844508 C41.9154363,112.856811 44.1954363,112.033729 47.4817326,112.033729 C50.7243993,112.033729 53.0015845,112.709078 53.9248438,113.995055 C54.7115845,113.390055 56.6819549,112.033729 60.9309178,112.033729 C67.9412141,112.033729 67.9848438,114.981345 67.9848438,115.784729 L67.9848438,123.437276 L64.12714,123.437276 L64.12714,116.399578 C64.12714,115.327462 64.12714,113.67145 60.0498808,113.67145 C58.3933623,113.67145 56.4215845,114.078066 55.4997326,114.830799 C54.7608438,115.45409 54.4849919,116.130845 54.4849919,116.962369 L54.4849919,123.437276 L50.6427697,123.437276 L50.6427697,116.185718 C50.6427697,115.124857 50.4218067,113.67145 46.6499549,113.67145 C44.5909178,113.67145 42.6627697,114.199066 41.9632882,114.961648 C41.13714,115.866334 40.9992141,116.679566 40.9992141,117.65038 L40.9992141,123.437276 L37.1443252,123.437276 L37.1443252,112.296834 Z M74.4687697,116.794938 C74.6869178,115.327462 76.6544734,113.585624 80.9498808,113.585624 C83.7126215,113.585624 85.8983252,114.412927 86.6864734,115.372485 C87.1312141,115.915578 87.2142512,116.382694 87.30714,116.794938 L74.4687697,116.794938 Z M87.1692141,119.853706 C86.6864734,120.491066 85.5014363,122.148485 81.1680289,122.148485 C77.7508438,122.148485 74.5546215,121.013055 74.2463993,118.339799 L91.2394363,118.339799 C91.594103,112.313718 82.8808438,112.033729 80.9498808,112.033729 C74.0282512,112.033729 70.3042512,114.550811 70.3042512,117.950066 C70.3042512,121.390124 74.1183252,123.701787 81.1680289,123.701787 C86.7779549,123.701787 89.9699549,122.192101 91.1169919,120.090078 L87.1692141,119.853706 Z M96.2878067,117.858613 C96.2878067,117.051008 96.5425475,113.585624 102.326992,113.585624 C107.013659,113.585624 108.546325,115.866334 108.546325,118.037299 C108.546325,121.862869 103.72877,122.148485 102.500103,122.148485 C100.269362,122.148485 96.2878067,121.364799 96.2878067,117.858613 Z M108.460473,123.437276 L112.049362,123.437276 L112.049362,108.032287 L108.195881,108.032287 L108.195881,113.563113 L108.110029,113.563113 C106.924992,112.676718 104.775881,112.033729 101.935733,112.033729 C96.2399549,112.033729 92.3372141,114.228613 92.3372141,117.858613 C92.3372141,121.430927 96.7198808,123.701787 102.113066,123.701787 C102.940622,123.701787 106.314177,123.701787 108.376029,122.019043 L108.460473,122.019043 L108.460473,123.437276 Z M115.864844,112.296834 L119.722547,112.296834 L119.722547,123.437276 L115.864844,123.437276 L115.864844,112.296834 Z M115.864844,108.032287 L119.722547,108.032287 L119.722547,110.186369 L115.864844,110.186369 L115.864844,108.032287 Z M137.983659,118.529741 C137.983659,119.463973 137.810547,120.343334 136.277881,121.162194 C134.476399,122.102055 131.896622,122.217427 130.801659,122.217427 C127.332399,122.217427 126.243066,121.239578 126.243066,120.450264 C126.243066,118.941985 129.268992,118.726718 131.636251,118.553659 C133.644622,118.403113 136.493214,118.123124 137.983659,117.847357 L137.983659,118.529741 Z M126.551288,115.712973 C127.035436,114.784369 127.644844,113.585624 132.468029,113.585624 C138.115955,113.585624 138.073733,115.154404 137.983659,116.358776 C135.793733,116.740066 131.636251,116.962369 131.060622,117.010206 C128.562473,117.152311 122.127807,117.532194 122.127807,120.491066 C122.127807,122.341241 124.887733,123.701787 129.879807,123.701787 C132.334325,123.701787 135.005584,123.417578 138.241214,122.061252 C138.336918,122.341241 138.41714,122.854787 139.03077,123.437276 L143.065807,123.437276 C141.835733,122.359531 141.835733,121.629311 141.835733,118.777369 L141.835733,116.232148 C141.835733,114.291927 141.835733,112.033729 133.030992,112.033729 C124.271288,112.033729 123.22277,114.484683 122.787881,115.485043 L126.551288,115.712973 Z M156.158918,114.635229 L152.090103,114.635229 L152.090103,119.138962 C152.090103,120.724624 152.090103,121.239578 153.755066,121.239578 C154.540399,121.239578 155.241288,121.131241 155.988622,120.983508 L156.158918,120.972252 L156.693733,123.250148 C154.71351,123.651136 152.577066,123.701787 151.953584,123.701787 C150.11551,123.701787 147.758103,123.390845 146.875659,122.557915 C146.132547,121.862869 146.046696,121.200183 146.046696,119.499148 L146.046696,114.635229 L143.28677,114.635229 L143.28677,112.296834 L146.046696,112.296834 L146.046696,110.079438 L152.090103,108.336194 L152.090103,112.296834 L156.158918,112.296834 L156.158918,114.635229 Z M162.12351,116.901869 C162.077066,115.442834 163.784251,114.291927 166.631436,114.291927 C167.553288,114.291927 170.974696,114.467799 171.10277,116.901869 L162.12351,116.901869 Z M170.74951,119.894508 C170.444103,120.403834 169.737584,121.430927 166.936844,121.430927 C163.518251,121.430927 162.077066,120.03802 161.989807,118.711241 L177.054696,118.711241 C177.189807,115.413287 174.825362,112.033729 166.283807,112.033729 C159.100399,112.033729 155.857733,114.920845 155.857733,117.935997 C155.857733,118.853345 156.205362,119.947973 157.214473,121.035566 C159.633807,123.575159 164.877807,123.701787 166.84677,123.701787 C174.382029,123.701787 176.267955,121.079183 176.75914,120.384136 L170.74951,119.894508 Z M184.193066,112.296834 L184.193066,113.796671 L184.28877,113.796671 C186.916399,112.156136 189.628473,112.033729 191.246992,112.033729 C195.631066,112.033729 197.12151,113.325334 197.690103,113.796671 C198.702029,113.193078 200.893362,112.033729 204.611733,112.033729 C212.06114,112.033729 212.06114,115.069985 212.06114,116.292648 L212.06114,123.437276 L206.058547,123.437276 L206.058547,117.070706 C206.058547,115.759404 206.058547,114.291927 202.855288,114.291927 C201.278992,114.291927 199.663288,114.784369 199.098918,115.525845 C198.564103,116.140694 198.34877,116.693636 198.34877,118.080915 L198.34877,123.437276 L192.341955,123.437276 L192.341955,117.328183 C192.341955,115.442834 192.391214,114.291927 189.231584,114.291927 C187.658103,114.291927 186.042399,114.723869 185.424547,115.372485 C184.941807,115.866334 184.639214,116.382694 184.639214,118.020415 L184.639214,123.437276 L178.632399,123.437276 L178.632399,112.296834 L184.193066,112.296834 Z M220.908103,118.123124 C220.908103,116.506508 221.482325,115.698904 222.931955,115.001043 C224.019881,114.484683 225.337214,114.372124 226.167584,114.372124 C228.218177,114.372124 230.938696,115.084055 230.938696,117.847357 C230.938696,119.092531 230.364473,121.430927 225.949436,121.430927 C223.140251,121.430927 220.908103,120.384136 220.908103,118.123124 Z M214.953362,112.296834 L214.953362,127.672276 L220.957362,127.672276 L220.957362,122.148485 C221.82714,122.640927 223.887584,123.701787 227.563733,123.701787 C232.610696,123.701787 237.120029,121.912113 237.120029,117.973985 C237.120029,113.971136 232.516399,112.033729 227.611584,112.033729 C226.256251,112.033729 222.96714,112.264473 220.650547,113.934555 L220.547807,113.934555 L220.547807,112.296834 L214.953362,112.296834 Z M238.998918,108.032287 L245.005733,108.032287 L245.005733,123.437276 L238.998918,123.437276 L238.998918,108.032287 Z M252.967436,116.901869 C252.928029,115.442834 254.636622,114.291927 257.492251,114.291927 C258.402844,114.291927 261.820029,114.467799 261.950918,116.901869 L252.967436,116.901869 Z M261.60751,119.894508 C261.296473,120.403834 260.594177,121.430927 257.786399,121.430927 C254.373436,121.430927 252.928029,120.03802 252.842177,118.711241 L267.909881,118.711241 C268.044992,115.413287 265.674918,112.033729 257.137584,112.033729 C249.94714,112.033729 246.71151,114.920845 246.71151,117.935997 C246.71151,118.853345 247.06477,119.947973 248.071066,121.035566 C250.477733,123.575159 255.731584,123.701787 257.701955,123.701787 C265.232992,123.701787 267.121733,121.079183 267.608696,120.384136 L261.60751,119.894508 Z M222.906622,125.729241 L222.216992,125.729241 L222.216992,125.349357 L224.07477,125.349357 L224.07477,125.729241 L223.368251,125.729241 L223.368251,127.534392 L222.906622,127.534392 L222.906622,125.729241 Z M224.36751,125.349357 L225.064177,125.349357 L225.493436,126.842159 L225.911436,125.349357 L226.624992,125.349357 L226.624992,127.534392 L226.185881,127.534392 L226.185881,125.816473 L225.720029,127.534392 L225.271066,127.534392 L224.815066,125.816473 L224.803807,125.816473 L224.803807,127.534392 L224.36751,127.534392 L224.36751,125.349357 Z M224.36751,125.349357" id="mt" fill="#A6A6A6" sketch:type="MSShapeGroup"></path>
    </g>
</svg>