<?xml version="1.0" encoding="UTF-8" standalone="no"?>
<svg width="769px" height="134px" viewBox="0 0 769 134" version="1.1" xmlns="http://www.w3.org/2000/svg" xmlns:xlink="http://www.w3.org/1999/xlink" xmlns:sketch="http://www.bohemiancoding.com/sketch/ns">
    <title>rumblelabs</title>
    <description>Created with Sketch (http://www.bohemiancoding.com/sketch)</description>
    <defs></defs>
    <g id="Page-1" stroke="none" stroke-width="1" fill="none" fill-rule="evenodd" sketch:type="MSPage">
        <path d="M186.880317,31.3286689 C180.613063,31.3286689 174.755163,33.0956127 169.76992,36.1509202 C167.453416,20.3276604 153.779696,8.1412941 137.300784,8.1412941 C125.980061,8.1412941 115.982601,13.8985202 110.077102,22.6334033 C104.171604,13.904859 94.1741434,8.1412941 82.8565933,8.1412941 C66.3760952,8.1412941 52.6992017,20.3276604 50.3842843,36.1509202 C45.3974541,33.0956127 39.5411415,31.3286689 33.2754742,31.3286689 C15.1765966,31.3286689 0.454102939,46.0426365 0.454102939,64.1098358 C0.454102939,82.1833739 15.1765966,96.8973415 33.2754742,96.8973415 C39.7029795,96.8973415 45.7005036,95.0273919 50.7634928,91.8262918 C50.8412385,91.7835048 50.9078777,91.7676578 50.9887966,91.7121932 C54.9490665,89.3668327 58.6411931,92.7691901 58.5856605,96.6295267 C58.5301279,100.290191 56.1247716,104.779654 49.7051996,105.253481 C42.7905937,105.763755 41.4387709,104.186975 39.8092848,104.746376 C37.3674357,105.586268 36.8438423,107.89835 37.6181259,109.65737 C39.5062353,113.947161 61.3162793,129.134955 110.083449,129.141294 L110.113595,129.141294 C158.883938,129.134955 180.676529,113.947161 182.564638,109.65737 C183.335748,107.89835 182.812155,105.586268 180.376652,104.746376 C178.74082,104.186975 177.398517,105.763755 170.475978,105.253481 C164.062752,104.779654 161.649463,100.290191 161.601863,96.6295267 C161.538397,92.7691901 165.236871,89.3668327 169.192381,91.7121932 C169.227287,91.7375484 169.247913,91.7486414 169.279646,91.7676578 C174.377542,95.0020367 180.413145,96.8973415 186.880317,96.8973415 C204.977608,96.8973415 219.700101,82.1833739 219.700101,64.1114205 C219.700101,46.0426365 204.977608,31.3286689 186.880317,31.3286689 L186.880317,31.3286689 L186.880317,31.3286689 L186.880317,31.3286689 Z M137.300784,19.2706635 C149.270446,19.2706635 158.97279,28.9674613 158.97279,40.9240457 C158.97279,52.8806301 149.270446,62.5615809 137.300784,62.5615809 C125.630999,62.5615809 116.120639,53.3497022 115.646232,41.8178182 C115.655751,41.5246482 115.674791,41.2203852 115.674791,40.9208763 C115.674791,40.6197827 115.655751,40.3202739 115.646232,40.020765 C116.120639,28.4809575 125.630999,19.2706635 137.300784,19.2706635 C137.300784,19.2706635 125.630999,19.2706635 137.300784,19.2706635 L137.300784,19.2706635 L137.300784,19.2706635 Z M82.8565933,19.2706635 C94.5232056,19.2706635 104.035152,28.4809575 104.507973,40.020765 C104.498453,40.3234433 104.479413,40.6197827 104.479413,40.9240457 C104.479413,41.2203852 104.498453,41.5246482 104.507973,41.8178182 C104.033565,53.3497022 94.5232056,62.5615809 82.8565933,62.5615809 C70.8837582,62.5615809 61.1814143,52.875876 61.1814143,40.9208763 C61.1814143,28.9674613 70.8837582,19.2706635 82.8565933,19.2706635 C82.8565933,19.2706635 70.8837582,19.2706635 82.8565933,19.2706635 L82.8565933,19.2706635 L82.8565933,19.2706635 Z M33.2754742,85.7600486 C21.3026391,85.7600486 11.6002952,76.0743437 11.6002952,64.1098358 C11.6002952,52.1516667 21.3026391,42.4675465 33.2754742,42.4675465 C45.2435494,42.4675465 54.9490665,52.1516667 54.9490665,64.1098358 C54.9490665,76.0743437 45.2435494,85.7600486 33.2754742,85.7600486 L33.2754742,85.7600486 L33.2754742,85.7600486 L33.2754742,85.7600486 Z M110.096142,111.479779 C66.7045311,111.470271 64.8783008,79.4212365 65.3082821,71.0238951 C65.340015,70.2996858 65.9445274,69.2300113 67.9008626,70.0857509 C72.3878991,72.3883244 77.4699281,73.7004585 82.8565933,73.7004585 C93.520445,73.7004585 103.019698,68.5882065 109.015636,60.6852925 C109.015636,60.6852925 109.377391,60.2336522 110.075515,60.2336522 C110.776813,60.2336522 111.136982,60.6852925 111.136982,60.6852925 C117.132919,68.5882065 126.632173,73.7004585 137.300784,73.7004585 C142.652543,73.7004585 147.709186,72.401002 152.172423,70.1190297 C152.199396,70.1142756 152.205742,70.106352 152.229542,70.1000132 C154.23189,69.1999019 154.841162,70.2901776 154.879242,71.0238951 C155.302876,79.4212365 153.490926,111.470271 110.096142,111.479779 C110.096142,111.479779 153.490926,111.470271 110.096142,111.479779 L110.096142,111.479779 L110.096142,111.479779 Z M186.880317,85.7600486 C174.910655,85.7600486 165.206724,76.0743437 165.206724,64.1114205 C165.206724,52.1516667 174.910655,42.4675465 186.880317,42.4675465 C198.849978,42.4675465 208.555496,52.1516667 208.555496,64.1114205 C208.555496,76.0743437 198.849978,85.7600486 186.880317,85.7600486 Z M316.952017,86.8899419 L303.416335,86.8899419 L293.149145,70.8178837 L293.03808,70.8178837 L293.03808,86.8899419 L282.161617,86.8899419 L282.161617,45.1013229 L298.421572,45.1013229 C300.492145,45.1013229 302.413574,45.351706 304.190619,45.8540568 C305.967663,46.3532383 307.500363,47.1265734 308.795067,48.1788162 C310.092944,49.231059 311.106811,50.5733025 311.849362,52.1960384 C312.588739,53.8235284 312.960014,55.7426038 312.960014,57.9596033 C312.960014,59.4032678 312.76327,60.7772053 312.374542,62.0893394 C311.9874,63.3998888 311.406687,64.5820773 310.627644,65.6343201 C309.850187,66.6865629 308.887092,67.577166 307.741534,68.2950365 C306.595975,69.0176611 305.280645,69.5057496 303.803477,69.7640562 L316.952017,86.8899419 Z M293.03808,63.8340974 L294.0932,63.8340974 C294.978548,63.8340974 295.868657,63.7786328 296.755593,63.6692883 C297.642528,63.5583591 298.446958,63.319069 299.168882,62.9482485 C299.892393,62.5774279 300.482625,62.0544759 300.945926,61.3667148 C301.406054,60.6852925 301.639291,59.7693342 301.639291,58.6251786 C301.639291,57.481023 301.406054,56.5666493 300.945926,55.8836423 C300.482625,55.1974659 299.892393,54.6729292 299.168882,54.3021087 C298.446958,53.9360423 297.642528,53.691998 296.755593,53.5842382 C295.868657,53.473309 294.978548,53.4162597 294.0932,53.4162597 L293.03808,53.4162597 L293.03808,63.8340974 Z M366.168207,45.1013229 L366.168207,68.5992995 C366.168207,69.93045 366.131715,71.2600159 366.060315,72.5927511 C365.984156,73.9207322 365.811212,75.2154346 365.531962,76.4721041 C365.255886,77.7287736 364.817971,78.9363173 364.227739,80.0994894 C363.635919,81.2658308 362.82197,82.3465983 361.787476,83.3449612 C360.897367,84.1927773 359.908887,84.9138172 358.81886,85.5049114 C357.725661,86.0975903 356.580102,86.574586 355.377424,86.9454065 C354.174746,87.3130576 352.937162,87.5824571 351.659911,87.7504356 C350.382661,87.9168294 349.13397,87.999234 347.915425,87.999234 C346.693707,87.999234 345.445016,87.9168294 344.167766,87.7504356 C342.890515,87.5824571 341.652931,87.3130576 340.45184,86.9454065 C339.249161,86.574586 338.102016,86.0975903 337.008816,85.5049114 C335.91879,84.9138172 334.930309,84.1927773 334.043374,83.3449612 C333.005707,82.3465983 332.191757,81.2658308 331.599938,80.0994894 C331.009706,78.9363173 330.574965,77.7287736 330.297301,76.4721041 C330.021225,75.2154346 329.84352,73.9207322 329.770535,72.5927511 C329.695962,71.2600159 329.659469,69.93045 329.659469,68.5992995 L329.659469,45.1013229 L340.532759,45.1013229 L340.532759,67.1049245 C340.532759,68.4741079 340.588291,69.8306137 340.700943,71.1776113 C340.812008,72.5261936 341.107125,73.7479996 341.587878,74.8366906 C342.070219,75.9253816 342.80801,76.8033071 343.807597,77.470467 C344.805598,78.1328729 346.174874,78.4672452 347.915425,78.4672452 C349.652803,78.4672452 351.022079,78.1328729 352.02008,77.470467 C353.019667,76.8033071 353.757458,75.9253816 354.239798,74.8366906 C354.720552,73.7479996 355.015669,72.5261936 355.12832,71.1776113 C355.239386,69.8306137 355.294918,68.4741079 355.294918,67.1049245 L355.294918,45.1013229 L366.168207,45.1013229 Z M387.646642,45.1013229 L398.356507,45.1013229 L406.845066,67.4392968 L415.835005,45.1013229 L426.655935,45.1013229 L432.980308,86.8899419 L422.103846,86.8899419 L419.052725,62.8373192 L418.941659,62.8373192 L408.899773,86.8899419 L404.569815,86.8899419 L394.969016,62.8373192 L394.857951,62.8373192 L391.364155,86.8899419 L380.543225,86.8899419 L387.646642,45.1013229 Z M447.572697,86.8899419 L447.572697,45.1013229 L463.10914,45.1013229 C464.95917,45.1013229 466.652122,45.2978261 468.186409,45.6860783 C469.720697,46.0743306 471.032853,46.6923648 472.126053,47.5417656 C473.217666,48.3927511 474.058588,49.5099667 474.651994,50.8949972 C475.243813,52.2800276 475.53893,53.9709058 475.53893,55.9660469 C475.53893,57.8470894 475.197801,59.5316287 474.510783,61.0117413 C473.828525,62.4870999 472.636953,63.6502719 470.934481,64.5012574 L470.934481,64.6121866 C473.93007,65.0194553 476.103776,66.1636109 477.454012,68.0462381 C478.804248,69.93045 479.48016,72.3328598 479.48016,75.2518828 C479.48016,77.4340189 479.043832,79.2706897 478.172763,80.7666493 C477.306454,82.262609 476.167242,83.4638139 474.759886,84.3670946 C473.355704,85.2735448 471.745258,85.9185189 469.931721,86.3099405 C468.11977,86.6966081 466.250701,86.8899419 464.329272,86.8899419 L447.572697,86.8899419 Z M458.447573,61.5093381 L459.670877,61.5093381 C460.372175,61.5093381 461.075059,61.4633817 461.779531,61.3667148 C462.482415,61.2779715 463.10914,61.0909765 463.66288,60.8136535 C464.218206,60.5379151 464.671987,60.1322312 465.024223,59.5966015 C465.374872,59.0609719 465.552576,58.3494403 465.552576,57.4604219 C465.552576,56.5016765 465.359005,55.752112 464.96869,55.2164824 C464.579962,54.6824374 464.081755,54.2767535 463.470896,53.9978457 C462.85845,53.7221074 462.185712,53.5541289 461.444748,53.4986643 C460.705371,53.4431997 459.965994,53.4162597 459.226616,53.4162597 L458.447573,53.4162597 L458.447573,61.5093381 L458.447573,61.5093381 L458.447573,61.5093381 L458.447573,61.5093381 Z M458.447573,78.5781745 L459.834302,78.5781745 C460.649838,78.5781745 461.555813,78.559158 462.553814,78.5227099 C463.551815,78.4862617 464.499043,78.3357149 465.384392,78.0805777 C466.272914,77.8206864 467.010704,77.3833084 467.605697,76.7747824 C468.197516,76.1678411 468.491046,75.288331 468.491046,74.1441754 C468.491046,72.8875059 468.197516,71.9461923 467.605697,71.3154805 C467.010704,70.6895228 466.261807,70.2473906 465.359005,69.9859146 C464.44827,69.7291927 463.480416,69.5976624 462.442749,69.5976624 L459.558225,69.5976624 L458.447573,69.5976624 L458.447573,78.5781745 Z M505.999371,77.6907408 L519.041606,77.6907408 L519.041606,86.8899419 L495.122909,86.8899419 L495.122909,45.1013229 L505.999371,45.1013229 L505.999371,77.6907408 Z M543.450577,54.3021087 L543.450577,61.285895 L555.713768,61.285895 L555.713768,70.4866808 L543.450577,70.4866808 L543.450577,77.6907408 L556.38016,77.6907408 L556.38016,86.8899419 L532.574114,86.8899419 L532.574114,45.1013229 L556.38016,45.1013229 L556.38016,54.3021087 L543.450577,54.3021087 Z M612.979017,77.6907408 L626.019665,77.6907408 L626.019665,86.8899419 L602.100968,86.8899419 L602.100968,45.1013229 L612.979017,45.1013229 L612.979017,77.6907408 Z M650.208092,79.632002 L647.323569,86.8899419 L635.780715,86.8899419 L651.872485,45.1013229 L663.748534,45.1013229 L679.505521,86.8899419 L667.910308,86.8899419 L665.189209,79.632002 L650.208092,79.632002 Z M657.811303,58.0150679 L657.698651,58.0150679 L653.205268,71.3154805 L662.25074,71.3154805 L657.811303,58.0150679 Z M692.880952,86.8899419 L692.880952,45.1013229 L708.418982,45.1013229 C710.267425,45.1013229 711.960377,45.2978261 713.494665,45.6860783 C715.028952,46.0743306 716.342695,46.6923648 717.437481,47.5417656 C718.527508,48.3927511 719.366844,49.5099667 719.961836,50.8949972 C720.553655,52.2800276 720.848771,53.9709058 720.848771,55.9660469 C720.848771,57.8470894 720.507642,59.5316287 719.819038,61.0117413 C719.138366,62.4870999 717.945208,63.6502719 716.244323,64.5012574 L716.244323,64.6121866 C719.239912,65.0194553 721.413618,66.1636109 722.763854,68.0462381 C724.11409,69.93045 724.790002,72.3328598 724.790002,75.2518828 C724.790002,77.4340189 724.353674,79.2706897 723.482605,80.7666493 C722.614709,82.262609 721.475497,83.4638139 720.071315,84.3670946 C718.663959,85.2735448 717.055099,85.9185189 715.243149,86.3099405 C713.429612,86.6966081 711.562129,86.8899419 709.639113,86.8899419 L692.880952,86.8899419 Z M703.759001,61.5093381 L704.979132,61.5093381 C705.682017,61.5093381 706.386488,61.4633817 707.089372,61.3667148 C707.79067,61.2779715 708.418982,61.0909765 708.974308,60.8136535 C709.528048,60.5379151 709.980242,60.1322312 710.334065,59.5966015 C710.684713,59.0609719 710.860831,58.3494403 710.860831,57.4604219 C710.860831,56.5016765 710.668847,55.752112 710.278532,55.2164824 C709.89139,54.6824374 709.39001,54.2767535 708.779151,53.9978457 C708.168292,53.7221074 707.495554,53.5541289 706.753003,53.4986643 C706.013626,53.4431997 705.275835,53.4162597 704.536458,53.4162597 L703.759001,53.4162597 L703.759001,61.5093381 L703.759001,61.5093381 L703.759001,61.5093381 L703.759001,61.5093381 Z M703.759001,78.5781745 L705.144144,78.5781745 C705.958093,78.5781745 706.865655,78.559158 707.863656,78.5227099 C708.861657,78.4862617 709.807298,78.3357149 710.694233,78.0805777 C711.581169,77.8206864 712.320546,77.3833084 712.915539,76.7747824 C713.505771,76.1678411 713.802474,75.288331 713.802474,74.1441754 C713.802474,72.8875059 713.505771,71.9461923 712.915539,71.3154805 C712.320546,70.6895228 711.570062,70.2473906 710.668847,69.9859146 C709.758112,69.7291927 708.788671,69.5976624 707.752591,69.5976624 L704.868067,69.5976624 L703.759001,69.5976624 L703.759001,78.5781745 Z M763.40422,55.8551177 C762.404632,55.0041322 761.286046,54.3322181 760.046875,53.8330366 C758.810878,53.3322705 757.522521,53.0818874 756.191324,53.0818874 C755.674077,53.0818874 755.144137,53.1579531 754.609437,53.3053305 C754.073151,53.4527079 753.574944,53.676151 753.111643,53.9709058 C752.649929,54.2672452 752.272307,54.6269728 751.975604,55.0500885 C751.677315,55.4763737 751.53293,55.9850633 751.53293,56.5761576 C751.53293,57.2052847 751.696354,57.7298214 752.031137,58.1545218 C752.362746,58.5792222 752.770514,58.9500427 753.249681,59.2622292 C753.733609,59.5775851 754.249269,59.8358917 754.803008,60.0387337 C755.358335,60.2431604 755.877168,60.4190624 756.356335,60.5648551 L759.132967,61.3984089 C760.576815,61.840541 761.927052,62.3682471 763.185262,62.9751884 C764.441886,63.5868838 765.531913,64.3316942 766.458514,65.2222973 C767.381943,66.1081463 768.113387,67.1698973 768.649673,68.4059657 C769.184373,69.6467882 769.454103,71.1142232 769.454103,72.8130248 C769.454103,74.8810623 769.14788,76.9253292 768.538608,78.9363173 C767.927749,80.9488902 766.790123,82.6587848 765.125731,84.0628317 C763.459752,85.4700479 761.592269,86.4747497 759.523282,87.0848603 C757.449535,87.6933863 755.358335,87.999234 753.249681,87.999234 C750.585702,87.999234 748.007401,87.5824571 745.510019,86.7536574 C743.014224,85.9185189 740.691374,84.7474234 738.546227,83.234032 L743.207795,74.4753783 C744.577071,75.6607362 746.055826,76.6749461 747.648819,77.5259316 C749.237052,78.3737478 750.976017,78.7984482 752.86254,78.7984482 C753.489265,78.7984482 754.12075,78.7160436 754.750649,78.5480651 C755.378961,78.3800866 755.942221,78.1328729 756.443601,77.80167 C756.941808,77.470467 757.34799,77.0346737 757.663732,76.4990441 C757.974715,75.9634145 758.13338,75.3295332 758.13338,74.5863075 C758.13338,73.8129724 757.903316,73.1648289 757.440015,72.6482157 C756.978301,72.1300178 756.402348,71.686301 755.72009,71.3154805 C755.036245,70.9494141 754.314321,70.6499052 753.554318,70.4312162 C752.797487,70.2061883 752.123162,70.0081005 751.53293,69.8195208 C749.828871,69.3409405 748.283478,68.8322508 746.898335,68.2950365 C745.510019,67.7609916 744.316861,67.0684763 743.31886,66.2206602 C742.32086,65.3696747 741.552923,64.2984154 741.016636,63.0037131 C740.477176,61.7121801 740.212206,60.0482419 740.212206,58.0150679 C740.212206,55.9105823 740.573962,53.9915069 741.292713,52.251503 C742.014637,50.5178379 743.014224,49.0393099 744.289888,47.8175039 C745.565552,46.600452 747.082386,45.655969 748.840391,44.9935631 C750.595222,44.3279878 752.53093,43.9936155 754.639584,43.9936155 C755.674077,43.9936155 756.77521,44.0776047 757.939809,44.2439986 C759.104407,44.4088077 760.251553,44.641759 761.381245,44.9380985 C762.507764,45.2328533 763.61683,45.5941656 764.708443,46.0172813 C765.798469,46.4435664 766.80599,46.9126385 767.732591,47.4308364 L763.40422,55.8551177 Z M763.40422,55.8551177" id="Fill-1" fill="#A6A6A6" sketch:type="MSShapeGroup"></path>
    </g>
</svg>