<?xml version="1.0" encoding="UTF-8" standalone="no"?>
<svg width="433px" height="134px" viewBox="0 0 433 134" version="1.1" xmlns="http://www.w3.org/2000/svg" xmlns:xlink="http://www.w3.org/1999/xlink" xmlns:sketch="http://www.bohemiancoding.com/sketch/ns">
    <title>Shopify</title>
    <description>Created with Sketch (http://www.bohemiancoding.com/sketch)</description>
    <defs></defs>
    <g id="Page-1" stroke="none" stroke-width="1" fill="none" fill-rule="evenodd" sketch:type="MSPage">
        <g id="Group" sketch:type="MSLayerGroup" transform="translate(0.000000, 1.000000)" fill="#A6A6A6">
            <path d="M341.539594,28 C336.783657,28 333,31.522131 333,36.0526033 C333,40.181488 335.810655,43 340.026998,43 L340.24298,43 C344.891287,43 348.891648,40.0805866 349,34.9453787 C349,30.9194134 346.080993,28 341.539594,28" id="Fill-1" sketch:type="MSShapeGroup"></path>
            <path d="M382.432128,49.2306132 L372.261059,49.2306132 L372.791982,46.7545184 C373.638627,41.6922322 376.604717,37.1696353 381.47859,37.1696353 C383.384958,37.1696353 384.868711,37.4920098 386.139387,37.9230417 L389,26.2923761 C387.304586,25.5389698 384.656342,25 381.053852,25 C375.862841,25 370.671829,26.5075323 366.752201,29.9543484 C361.772851,34.2617891 359.442453,40.507794 358.276546,46.7545184 L357.853224,49.2306132 L351.072982,49.2306132 L348.954246,60.4309665 L355.734487,60.4309665 L348,102 L362.620204,102 L370.353983,60.4309665 L380.418868,60.4309665 L382.432128,49.2306132" id="Fill-2" sketch:type="MSShapeGroup"></path>
            <path d="M417.581058,49 L408.587689,72.40846 C406.445593,78.0745158 405.37526,81.3885835 404.196893,84.9154943 L403.982969,84.9154943 C403.768331,81.495005 403.340484,77.7538226 402.697998,72.51631 L400.341979,49 L384.816433,49 L393.703913,96.9939854 C393.917837,98.0624865 393.811233,98.7045871 393.38267,99.4531093 C391.669137,102.766463 388.777951,105.973395 385.351599,108.324668 C382.568448,110.355249 379.463339,111.638022 377,112.492966 L381.068838,125 C384.066627,124.358614 390.277561,121.89949 395.524051,116.983385 C402.270151,110.676657 408.479654,100.948725 414.904511,87.6945972 L433,49 L417.581058,49" id="Fill-3" sketch:type="MSShapeGroup"></path>
            <path d="M149.385755,69.7905554 C145.691114,67.7712409 143.791961,66.0701301 143.791961,63.7311914 C143.791961,60.7551353 146.430889,58.8423622 150.546544,58.8423622 C154.345557,58.8423622 157.617772,59.904935 159.622708,60.8609664 L163,50.4440595 C160.67842,49.0625728 156.351199,48 150.757405,48 C137.986601,48 129.227786,55.3343093 129.227786,65.6453851 C129.227786,71.490956 133.342736,75.9557506 138.830748,79.1448895 C143.263752,81.6954904 144.846968,83.5031427 144.846968,86.1609952 C144.846968,88.9246789 142.630465,91.1570761 138.51481,91.1570761 C133.976728,91.2629073 129.227786,89.3494239 126.588152,87.9679372 L123,98.3848441 C125.744711,100.298327 131.3378,101.892897 137.354725,101.998728 C150.441467,102.105269 159.834979,95.514619 159.834979,83.8227668 C159.834979,77.55032 155.085331,73.0855255 149.385755,69.7905554" id="Fill-4" sketch:type="MSShapeGroup"></path>
            <path d="M319,101 L333.871112,101 L344,49 L329.022321,49 L319,101" id="Fill-5" sketch:type="MSShapeGroup"></path>
            <path d="M71.3044199,14.5274899 L67.6522389,15.6771481 C66.0678213,10.9132566 63.8994487,7.52437626 61.179485,5.56559342 C59.1644885,4.11474915 56.9517917,3.48590689 54.5674261,3.67405878 C54.0693055,3.00300754 53.5212321,2.41852048 52.9232059,1.92560544 C50.2827445,-0.243506896 46.8789202,-0.581894144 42.8060101,0.91974398 C30.5922049,5.4296662 25.4062626,21.5263112 23.5383103,29.5674796 L12.8948515,32.9191588 C12.8948515,32.9191588 10.3859558,33.6424347 9.79848301,34.3614181 C9.15261474,35.1469344 9.02738102,37.2716916 9.02738102,37.2716916 L0,108.087629 L67.7802868,121 L73,14.4666804 C72.2528191,14.3185912 71.4894562,14.4824193 71.3044199,14.5274899 C71.3044199,14.5274899 71.4894562,14.4824193 71.3044199,14.5274899 L71.3044199,14.5274899 L71.3044199,14.5274899 Z M52.9977476,18.5465022 L42,22 C43.4578578,16.2130578 46.2584447,10.3061098 51.6109407,8 C52.7234125,10.9508072 53.0299837,14.9903329 52.9977476,18.5465022 C52.9977476,18.5465022 53.0299837,14.9903329 52.9977476,18.5465022 L52.9977476,18.5465022 L52.9977476,18.5465022 Z M44.1344176,4.66059126 C46.6340962,3.74066679 48.5539342,3.78440443 50,4.77387892 C42.2874132,8.34244017 38.9172666,17.3265817 37.4648367,25.0265575 L28,28 C30.1128825,20.2505505 34.8300977,8.08646742 44.1344176,4.66059126 C44.1344176,4.66059126 34.8300977,8.08646742 44.1344176,4.66059126 L44.1344176,4.66059126 L44.1344176,4.66059126 Z M50.5121431,56.6689692 C49.9805853,56.3998437 49.3477451,56.1148023 48.6331805,55.8406127 C47.9249024,55.5685934 47.1376939,55.307426 46.281334,55.0911128 C45.4340545,54.8762465 44.5225132,54.7018937 43.5606799,54.5998865 C42.6114196,54.4993262 41.6118673,54.4660472 40.5780886,54.5268175 C39.6274313,54.5883112 38.7640864,54.7612171 38.0069134,55.0411943 C37.2567253,55.3190012 36.6050256,55.7017092 36.0657843,56.1741256 C35.5314325,56.6472655 35.1074435,57.2122843 34.8112799,57.8619473 C34.5130207,58.50944 34.3390945,59.24013 34.307662,60.0511236 C34.2790235,60.6486978 34.3712254,61.2231215 34.5751872,61.7823526 C34.7784504,62.3430306 35.0948705,62.8935802 35.5300355,63.4368953 C35.9652004,63.9823807 36.5177132,64.5322069 37.1868754,65.0870973 C37.8588315,65.6470518 38.655819,66.2185817 39.5722499,66.8125386 C40.8588853,67.6654926 42.1734606,68.6284119 43.4230755,69.7309581 C44.6908515,70.8523141 45.8894759,72.1154674 46.9225561,73.5529734 C47.9647168,75.0092893 48.8357452,76.6406814 49.420389,78.4703004 C50.0092238,80.3129415 50.3095784,82.3472983 50.2131855,84.5871165 C50.0602142,88.2514186 49.2862772,91.4100253 48.0003403,94.0311045 C46.7353584,96.6196282 44.9877136,98.6518147 42.8831357,100.124047 C40.8232618,101.564447 38.4406813,102.460084 35.8443601,102.817471 C33.3255722,103.167624 30.6251746,103.010634 27.8395601,102.37544 C27.8179067,102.371823 27.7955547,102.365312 27.7732027,102.358801 C27.7515492,102.355183 27.7284988,102.348672 27.7082423,102.345778 C27.6858903,102.339267 27.6649353,102.334203 27.6411864,102.329139 C27.6195329,102.321904 27.5985779,102.319011 27.5755275,102.313223 C26.2707311,101.984051 25.0085432,101.560106 23.8252857,101.063092 C22.6587921,100.574036 21.5621485,100.017699 20.5660888,99.4157837 C19.5805065,98.8232737 18.6892216,98.1851859 17.9194756,97.5275649 C17.157413,96.8764549 16.5078089,96.2007475 16,95.5257635 L19.0726976,84.9618665 C19.589587,85.4147496 20.2266182,85.9320203 20.9460723,86.4565255 C21.6767024,86.9897122 22.4953433,87.5337508 23.3740552,88.0430634 C24.2639431,88.5559934 25.2125049,89.0341974 26.1904037,89.4212461 C27.17878,89.813359 28.1971917,90.1164869 29.2044274,90.2669656 C30.0957123,90.4044221 30.8947953,90.3791012 31.5898019,90.2156003 C32.292492,90.0513759 32.8918043,89.748248 33.3800552,89.3366018 C33.873894,88.9235087 34.2573701,88.4004504 34.5214027,87.8007058 C34.7882294,87.1966205 34.9425977,86.5172958 34.9705377,85.7916699 C35.0026686,85.0645972 34.9363112,84.3794848 34.7616864,83.7146292 C34.5821722,83.0512205 34.296486,82.4058982 33.8829745,81.7605759 C33.4701616,81.1181475 32.9330157,80.475719 32.2533761,79.8101399 C31.5807214,79.1467313 30.7746534,78.4674066 29.8191066,77.7446745 C28.6463266,76.8374613 27.5433965,75.8542853 26.5571157,74.7835712 C25.580614,73.7273262 24.715872,72.5842665 24.0068954,71.3406465 C23.3063008,70.113666 22.7544865,68.7817845 22.395458,67.3370438 C22.0413189,65.9009847 21.8764731,64.343385 21.9456245,62.6476054 C22.0664649,59.8138302 22.6140882,57.1992621 23.527725,54.8487552 C24.4539349,52.4722039 25.7643192,50.3365633 27.4092847,48.5011567 C29.0863811,46.6288539 31.1273955,45.050274 33.4743525,43.8326984 C35.894652,42.5825673 38.657216,41.7035689 41.7236272,41.2883055 C43.1429774,41.093696 44.5085432,41.0068813 45.7972741,41.0003702 C47.1062614,40.9938591 48.3363184,41.0734392 49.4699824,41.2231945 C50.6190135,41.3743967 51.6639682,41.5964975 52.590178,41.8663464 C53.5233729,42.1398126 54.3336318,42.4653676 55,42.8184138 L50.5121431,56.6689692 L50.5121431,56.6689692 L50.5121431,56.6689692 L50.5121431,56.6689692 Z M58.4583051,18 C58.4522034,17.5657347 58.4447458,17.1281645 58.4264407,16.6793575 C58.2935593,13.240928 57.8149153,10.343843 57,8 C57.8847458,8.08658867 58.6949153,8.37147201 59.4298305,8.87910635 C61.4847458,10.2962522 62.9613559,13.1470685 64,16.325732 L58.4583051,18 L58.4583051,18 Z M58.4583051,18" id="Fill-6" sketch:type="MSShapeGroup"></path>
            <path d="M93.9280843,23.165459 C93.9280843,23.165459 93.8288506,22.6223365 93.5261877,22.425161 C93.2185632,22.2286973 92.8854215,22.1902587 92.8854215,22.1902587 L83.2462835,21.4698918 L76.1524904,14.3900801 C75.8881034,14.1836509 75.5769349,14.0640643 75.2579693,14 L70,120 L107,111.957801 L93.9280843,23.165459" id="Fill-7" sketch:type="MSShapeGroup"></path>
            <path d="M247.210763,48 C229.642017,48 218,63.8826859 218,81.5645463 C218,92.8944645 224.985352,102 238.108874,102 C255.359397,102 267,86.5411071 267,68.4347462 C267,57.9531215 260.862536,48 247.210763,48 L247.210763,48 L247.210763,48 L247.210763,48 Z M240.033816,90 C235.100044,90 233,85.8390475 233,80.6382044 C233,72.4191762 237.303898,59 245.177311,59 C250.320806,59 252,63.3687916 252,67.6340113 C252,76.4765567 247.696803,90 240.033816,90 L240.033816,90 Z M240.033816,90" id="Fill-8" sketch:type="MSShapeGroup"></path>
            <path d="M304.939813,48 C299.106657,48 293.379803,51.2329138 289.454417,56.836151 L289.24323,56.836151 L290.091521,48.8625904 L277.152417,48.8625904 C276.516021,54.25054 275.348823,62.4401083 274.182334,68.5826445 L264,123 L278.637105,123 L282.666667,101.016906 L282.985573,101.016906 C284.682156,102.094064 287.970438,102.956654 291.576917,102.956654 C308.758188,102.956654 320,85.0690648 320,66.9654676 C320,56.9441548 315.651531,48 304.939813,48 L304.939813,48 L304.939813,48 L304.939813,48 Z M291.096123,91 C288.422548,91 286.604431,90.1508696 285,88.8775286 L287.459889,75.1814874 C289.17152,66.0517391 293.984099,60 299.118278,60 C303.60997,60 305,64.1406636 305,68.0685126 C305,77.5174828 299.331964,91 291.096123,91 L291.096123,91 Z M291.096123,91" id="Fill-9" sketch:type="MSShapeGroup"></path>
            <path d="M201.993318,48.099347 C195.512181,48.099347 190.412606,51.2255258 186.481611,55.9688178 L186.268626,55.8607702 L191.899953,26 L177.237346,26 L163,102 L177.662606,102 L182.549905,76.0195813 C184.462512,66.2095745 189.456303,60.1733122 194.131327,60.1733122 C197.424787,60.1733122 198.700568,62.4365504 198.700568,65.6707769 C198.700568,67.7186401 198.487583,70.1979736 198.062323,72.2465572 L192.537488,102 L207.200095,102 L212.937204,71.2762892 C213.57474,68.0420628 214,64.160991 214,61.5743302 C214,53.1660617 209.643744,48.099347 201.993318,48.099347" id="Fill-10" sketch:type="MSShapeGroup"></path>
        </g>
    </g>
</svg>