<?xml version="1.0" encoding="UTF-8" standalone="no"?>
<svg width="422px" height="134px" viewBox="0 0 422 134" version="1.1" xmlns="http://www.w3.org/2000/svg" xmlns:xlink="http://www.w3.org/1999/xlink" xmlns:sketch="http://www.bohemiancoding.com/sketch/ns">
    <title>Typecast</title>
    <description>Created with Sketch (http://www.bohemiancoding.com/sketch)</description>
    <defs></defs>
    <g id="Page-1" stroke="none" stroke-width="1" fill="none" fill-rule="evenodd" sketch:type="MSPage">
        <path d="M39.9194733,91.9778206 C34.4318595,91.9778206 32.8054664,89.3422623 32.8054664,83.6638323 L32.8054664,58.92706 L50.8953168,58.92706 L68.7816371,102.116119 L67.155552,105.361112 C64.5133562,110.632843 62.2776046,112.456845 56.7896829,112.456845 C54.1471791,112.456845 50.6920947,111.84864 48.2528131,111.038006 L46.2202837,119.959278 C48.6592573,121.176611 53.943957,122.595451 58.8219043,122.595451 C69.5948336,122.595451 75.6924218,116.917635 79.9603949,106.577523 L98.6596038,60.7525988 C99.066356,59.5355729 100.082467,58.9273672 101.3018,58.7246319 L104.55397,58.3194686 L104.55397,50.2082155 L82.3993686,50.2082155 L81.1800357,58.3188542 L87.2776239,58.7240176 L77.1149769,85.2872502 L76.3023962,85.2872502 L67.1558599,58.7240176 L73.253756,58.3188542 L73.253756,50.2082155 L33.6192788,50.2082155 C32.8054664,50.2082155 32.8054664,49.802745 32.8054664,49.3975817 L32.8054664,35 L23.4563239,35 C22.6428194,46.1519746 18.9848208,50.2082155 10.2450367,51.4240127 L10.2450367,58.9267528 L17.1555135,58.9267528 C17.9684021,58.9267528 18.1716243,59.3319161 18.1716243,60.1428571 L18.1716243,86.9085178 C18.1716243,98.0611068 22.6428194,102.925524 34.0254152,102.925524 C39.9194733,102.925524 46.0167536,100.8994 50.4888725,98.8711263 L47.6431466,90.3559386 C45.2044808,91.1665724 42.3590628,91.9778206 39.9194733,91.9778206 L39.9194733,91.9778206 L39.9194733,91.9778206 L39.9194733,91.9778206 L39.9194733,91.9778206 Z M143.17172,49.3972745 C137.887329,49.3972745 131.180074,51.4240127 126.301819,55.4799464 L125.895375,55.0735544 L125.082794,50.2082155 L107.399388,50.2082155 L107.399388,58.3188542 L111.871507,59.1294881 C112.684087,59.3322233 113.090224,60.1431643 113.090224,61.1565334 L113.090224,112.254417 C113.090224,113.470522 112.887617,114.07842 111.261532,114.281156 L106.383585,114.889361 L106.383585,123 L139.920166,123 L139.920166,114.889361 L129.554297,114.078113 C128.334656,114.078113 127.928212,113.674486 127.928212,112.25411 L127.928212,98.0611068 C131.993579,101.304564 136.871526,102.925524 141.952696,102.925524 C158.212931,102.925524 162.481212,86.5018186 162.481212,74.7425597 C162.480904,55.8851097 154.554316,49.3972745 143.17172,49.3972745 L143.17172,49.3972745 L143.17172,49.3972745 L143.17172,49.3972745 L143.17172,49.3972745 Z M313.498054,91.1665724 L313.498054,66.8346563 C313.498054,53.0452803 307.196628,49.3972745 292.562477,49.3972745 C283.010113,49.3972745 271.220765,51.0185422 271.220765,64.4015261 L285.042026,65.6173233 C285.042026,59.5346514 287.481308,58.7237104 292.156341,58.7237104 C298.253929,58.7237104 299.066202,61.9677816 299.066202,66.8343491 L299.066202,72.3082009 L287.481,73.1200634 C275.285516,73.9306972 269.187927,78.3911799 269.187927,88.1240078 C269.187927,94.4109508 270.814013,102.925524 284.025608,102.925524 C291.342837,102.925524 296.221092,100.087231 299.879399,96.439532 L300.693211,96.439532 L301.505176,101.710034 L320.00147,101.710034 L320.00147,94.0051731 L315.123523,93.1945393 C313.498054,93.1945393 313.498054,92.7890688 313.498054,91.1665724 L313.498054,91.1665724 L313.498054,91.1665724 L313.498054,91.1665724 L313.498054,91.1665724 Z M192.765315,49.3972745 C179.147583,49.3972745 168.172048,57.5069917 168.172048,75.5538079 C168.172048,91.1665724 174.67608,102.925524 193.578511,102.925524 C201.302184,102.925524 208.009131,100.8994 214.106719,98.0611068 L210.448721,88.1240078 C203.944072,90.7607947 199.269347,91.5714286 195.611041,91.5714286 C187.480615,91.5714286 184.635505,86.9085178 183.822001,79.6085129 L214.106719,79.6085129 C214.513164,77.9869381 214.513164,74.3361677 214.513164,73.1200634 C214.513472,55.8851097 205.977526,49.3972745 192.765315,49.3972745 L192.765315,49.3972745 L192.765315,49.3972745 L192.765315,49.3972745 L192.765315,49.3972745 Z M350.285881,69.8762994 C344.595661,68.6589664 338.904517,67.2392053 338.904517,63.1841931 C338.904517,60.3455924 341.749011,58.3188542 346.628191,58.3188542 C349.473301,58.3188542 351.70936,58.5212823 352.928385,58.9267528 C353.538667,59.1291809 353.741582,59.5346514 353.944804,60.3455924 L355.164445,65.6176304 L365.530006,66.4282643 L365.530006,52.2349537 C363.090724,51.0188494 355.164445,49.3975817 347.440771,49.3975817 C336.058175,49.3975817 325.692614,54.2629205 325.692614,66.4285714 C325.692614,79.6091273 336.465236,81.432823 344.595661,82.8528913 C349.879437,83.8674891 353.538975,84.8808581 353.538975,88.5300926 C353.538975,92.3829839 350.693249,93.8024378 345.408858,93.8024378 C341.749319,93.8024378 339.310654,93.396353 338.091013,92.9911897 C337.277816,92.7890688 337.074594,92.1805558 336.871988,91.3708435 L335.651731,85.6911848 L325.286786,84.880551 L325.286786,99.276904 C326.912255,100.494237 335.651731,102.925831 344.595661,102.925831 C357.399888,102.925831 367.155783,98.061414 367.155783,85.6911848 C367.155475,74.3364749 358.619221,71.4978742 350.285881,69.8762994 L350.285881,69.8762994 L350.285881,69.8762994 L350.285881,69.8762994 L350.285881,69.8762994 Z M220.204308,76.7699122 C220.204308,91.9778206 228.538263,102.925831 246.626882,102.925831 C253.537359,102.925831 260.448759,100.899707 264.919954,98.061414 L261.46487,88.3282789 C258.618528,89.7471185 254.147641,91.3705364 249.269386,91.3705364 C242.155379,91.3705364 236.261321,88.124315 236.261321,75.1480302 C236.261321,63.5905851 241.139268,59.5346514 246.83072,59.5346514 C249.473224,59.5346514 251.505445,59.9407362 252.318334,60.1428571 C253.130914,60.3452852 253.130914,60.5480205 253.334137,61.3595758 L254.757615,68.6586592 L264.919954,69.0653584 L264.919954,53.4519795 C262.074229,51.4240127 255.163444,49.3972745 247.440386,49.3972745 C231.790125,49.3972745 220.204308,58.3188542 220.204308,76.7699122 L220.204308,76.7699122 L220.204308,76.7699122 L220.204308,76.7699122 L220.204308,76.7699122 Z M407.399927,90.3562458 C405.367705,91.1668796 402.522595,91.9778206 399.676253,91.9778206 C394.188639,91.9778206 392.562246,89.3422623 392.562246,83.6638323 L392.562246,59.9410434 L407.399927,59.9410434 L407.399927,50.2082155 L393.376059,50.2082155 C392.562246,50.2082155 392.562246,49.802745 392.562246,49.3975817 L392.562246,35 L383.213104,35 C382.399907,46.1519746 378.741293,50.2082155 370.001817,51.4240127 L370.001817,59.9410434 L376.912294,59.9410434 C377.928712,59.9410434 377.928712,60.3455924 377.928712,61.1562262 L377.928712,86.908825 C377.928712,98.061414 382.399907,102.925831 393.781887,102.925831 C399.676253,102.925831 405.773534,100.899707 410.245037,98.8714335 L407.399927,90.3562458 L407.399927,90.3562458 L407.399927,90.3562458 L407.399927,90.3562458 Z M137.480884,91.5717357 C133.619048,91.5717357 129.960741,89.3422623 127.928212,87.7194588 L127.928212,64.4018333 C129.960741,62.7790297 134.0258,60.7522916 138.294389,60.7522916 C143.172028,60.7522916 146.830643,65.2127743 146.830643,75.1483374 C146.830643,84.880551 143.985225,91.5717357 137.480884,91.5717357 L137.480884,91.5717357 L137.480884,91.5717357 L137.480884,91.5717357 L137.480884,91.5717357 Z M299.06651,88.5297855 C296.627844,90.3559386 293.375674,92.3826767 289.920589,92.3826767 C286.668419,92.3826767 284.229753,90.7611019 284.229753,86.908825 C284.229753,82.8525841 286.261359,81.2310093 292.156649,80.825846 L299.06651,80.4191468 L299.06651,88.5297855 L299.06651,88.5297855 L299.06651,88.5297855 L299.06651,88.5297855 Z M184.229061,70.2817699 C184.635813,61.9683959 188.294119,59.9410434 192.359178,59.9410434 C196.424237,59.9410434 199.676407,61.9680887 199.676407,70.2817699 L184.229061,70.2817699 L184.229061,70.2817699 L184.229061,70.2817699 L184.229061,70.2817699 Z M184.229061,70.2817699" id="typecast" fill="#A6A6A6" sketch:type="MSShapeGroup"></path>
    </g>
</svg>